<svg xmlns="http://www.w3.org/2000/svg" viewBox="0 0 680 880" role="img"><title>安徽历史类500分省外补充推荐院校</title><desc>2026年安徽历史类500分考生可报考的省外非省会城市本科院校补充推荐，按城市与院校特色分类</desc><rect x="0" y="0" width="680" height="880" fill="#ffffff"/><text x="20" y="28" font-size="16" fill="#2C2C2A" font-weight="500" text-anchor="start" font-family="sans-serif">安徽历史类 500 分 · 省外补充推荐</text><text x="20" y="46" font-size="11" fill="#5F5E5A" text-anchor="start" font-family="sans-serif">聚焦非省会城市与特色院校 · 预估位次约 3.4–3.5 万名 · 数据基于 2025 年投档线</text><rect x="20" y="64" width="640" height="26" fill="#F1EFE8"/><line x1="20" y1="90" x2="660" y2="90" stroke="#D3D1C7" stroke-width="0.5"/><text x="28" y="81" font-size="11" fill="#5F5E5A" font-weight="500" text-anchor="start" font-family="sans-serif">院校</text><text x="216" y="81" font-size="11" fill="#5F5E5A" font-weight="500" text-anchor="start" font-family="sans-serif">城市</text><text x="278" y="81" font-size="11" fill="#5F5E5A" font-weight="500" text-anchor="start" font-family="sans-serif">性质</text><text x="324" y="81" font-size="11" fill="#5F5E5A" font-weight="500" text-anchor="start" font-family="sans-serif">25分数</text><text x="368" y="81" font-size="11" fill="#5F5E5A" font-weight="500" text-anchor="start" font-family="sans-serif">25位次</text><text x="432" y="81" font-size="11" fill="#5F5E5A" font-weight="500" text-anchor="start" font-family="sans-serif">报考建议</text><text x="486" y="81" font-size="11" fill="#5F5E5A" font-weight="500" text-anchor="start" font-family="sans-serif">特色</text><rect x="20" y="90" width="640" height="26" fill="#EEEDFE"/><text x="28" y="107" font-size="12" fill="#3C3489" font-weight="500" text-anchor="start" font-family="sans-serif">沿海/发达城市民办 · 就业优选</text><rect x="20" y="116" width="640" height="22" fill="#ffffff"/><line x1="20" y1="138" x2="660" y2="138" stroke="#D3D1C7" stroke-width="0.5"/><text x="28" y="131" font-size="11" fill="#2C2C2A" font-weight="500" text-anchor="start" font-family="sans-serif">厦门大学嘉庚学院</text><text x="216" y="131" font-size="10" fill="#5F5E5A" text-anchor="start" font-family="sans-serif">厦门</text><text x="278" y="131" font-size="10" fill="#854F0B" text-anchor="start" font-family="sans-serif">民办</text><text x="324" y="131" font-size="11" fill="#2C2C2A" font-weight="500" text-anchor="start" font-family="sans-serif">498</text><text x="368" y="131" font-size="10" fill="#5F5E5A" text-anchor="start" font-family="sans-serif">34280</text><rect x="431" y="119" width="40" height="16" fill="#EAF3DE" rx="3"/><text x="451.0" y="131" font-size="10" fill="#27500A" font-weight="500" text-anchor="middle" font-family="sans-serif">稳妥</text><text x="486" y="131" font-size="10" fill="#5F5E5A" text-anchor="start" font-family="sans-serif">滨海城市 母体强</text><rect x="20" y="138" width="640" height="22" fill="#FBFAF7"/><line x1="20" y1="160" x2="660" y2="160" stroke="#D3D1C7" stroke-width="0.5"/><text x="28" y="153" font-size="11" fill="#2C2C2A" font-weight="500" text-anchor="start" font-family="sans-serif">集美大学诚毅学院</text><text x="216" y="153" font-size="10" fill="#5F5E5A" text-anchor="start" font-family="sans-serif">厦门</text><text x="278" y="153" font-size="10" fill="#854F0B" text-anchor="start" font-family="sans-serif">民办</text><text x="324" y="153" font-size="11" fill="#2C2C2A" font-weight="500" text-anchor="start" font-family="sans-serif">496</text><text x="368" y="153" font-size="10" fill="#5F5E5A" text-anchor="start" font-family="sans-serif">34847</text><rect x="431" y="141" width="40" height="16" fill="#EAF3DE" rx="3"/><text x="451.0" y="153" font-size="10" fill="#27500A" font-weight="500" text-anchor="middle" font-family="sans-serif">稳妥</text><text x="486" y="153" font-size="10" fill="#5F5E5A" text-anchor="start" font-family="sans-serif">滨海城市 师范底蕴</text><rect x="20" y="160" width="640" height="22" fill="#ffffff"/><line x1="20" y1="182" x2="660" y2="182" stroke="#D3D1C7" stroke-width="0.5"/><text x="28" y="175" font-size="11" fill="#2C2C2A" font-weight="500" text-anchor="start" font-family="sans-serif">杭州电子科技大学信息工程学院</text><text x="216" y="175" font-size="10" fill="#5F5E5A" text-anchor="start" font-family="sans-serif">杭州</text><text x="278" y="175" font-size="10" fill="#854F0B" text-anchor="start" font-family="sans-serif">民办</text><text x="324" y="175" font-size="11" fill="#2C2C2A" font-weight="500" text-anchor="start" font-family="sans-serif">497</text><text x="368" y="175" font-size="10" fill="#5F5E5A" text-anchor="start" font-family="sans-serif">34815</text><rect x="431" y="163" width="40" height="16" fill="#EAF3DE" rx="3"/><text x="451.0" y="175" font-size="10" fill="#27500A" font-weight="500" text-anchor="middle" font-family="sans-serif">稳妥</text><text x="486" y="175" font-size="10" fill="#5F5E5A" text-anchor="start" font-family="sans-serif">省会 IT特色</text><rect x="20" y="182" width="640" height="22" fill="#FBFAF7"/><line x1="20" y1="204" x2="660" y2="204" stroke="#D3D1C7" stroke-width="0.5"/><text x="28" y="197" font-size="11" fill="#2C2C2A" font-weight="500" text-anchor="start" font-family="sans-serif">苏州大学应用技术学院</text><text x="216" y="197" font-size="10" fill="#5F5E5A" text-anchor="start" font-family="sans-serif">苏州</text><text x="278" y="197" font-size="10" fill="#854F0B" text-anchor="start" font-family="sans-serif">民办</text><text x="324" y="197" font-size="11" fill="#2C2C2A" font-weight="500" text-anchor="start" font-family="sans-serif">497</text><text x="368" y="197" font-size="10" fill="#5F5E5A" text-anchor="start" font-family="sans-serif">34565</text><rect x="431" y="185" width="40" height="16" fill="#EAF3DE" rx="3"/><text x="451.0" y="197" font-size="10" fill="#27500A" font-weight="500" text-anchor="middle" font-family="sans-serif">稳妥</text><text x="486" y="197" font-size="10" fill="#5F5E5A" text-anchor="start" font-family="sans-serif">长三角 应用型</text><rect x="20" y="204" width="640" height="22" fill="#ffffff"/><line x1="20" y1="226" x2="660" y2="226" stroke="#D3D1C7" stroke-width="0.5"/><text x="28" y="219" font-size="11" fill="#2C2C2A" font-weight="500" text-anchor="start" font-family="sans-serif">上海财经大学浙江学院</text><text x="216" y="219" font-size="10" fill="#5F5E5A" text-anchor="start" font-family="sans-serif">金华</text><text x="278" y="219" font-size="10" fill="#854F0B" text-anchor="start" font-family="sans-serif">民办</text><text x="324" y="219" font-size="11" fill="#2C2C2A" font-weight="500" text-anchor="start" font-family="sans-serif">498</text><text x="368" y="219" font-size="10" fill="#5F5E5A" text-anchor="start" font-family="sans-serif">34035</text><rect x="431" y="207" width="40" height="16" fill="#EAF3DE" rx="3"/><text x="451.0" y="219" font-size="10" fill="#27500A" font-weight="500" text-anchor="middle" font-family="sans-serif">稳妥</text><text x="486" y="219" font-size="10" fill="#5F5E5A" text-anchor="start" font-family="sans-serif">财大品牌 经管类</text><rect x="20" y="226" width="640" height="22" fill="#FBFAF7"/><line x1="20" y1="248" x2="660" y2="248" stroke="#D3D1C7" stroke-width="0.5"/><text x="28" y="241" font-size="11" fill="#2C2C2A" font-weight="500" text-anchor="start" font-family="sans-serif">成都锦城学院</text><text x="216" y="241" font-size="10" fill="#5F5E5A" text-anchor="start" font-family="sans-serif">成都</text><text x="278" y="241" font-size="10" fill="#854F0B" text-anchor="start" font-family="sans-serif">民办</text><text x="324" y="241" font-size="11" fill="#2C2C2A" font-weight="500" text-anchor="start" font-family="sans-serif">495</text><text x="368" y="241" font-size="10" fill="#5F5E5A" text-anchor="start" font-family="sans-serif">35856</text><rect x="431" y="229" width="40" height="16" fill="#EAF3DE" rx="3"/><text x="451.0" y="241" font-size="10" fill="#27500A" font-weight="500" text-anchor="middle" font-family="sans-serif">稳妥</text><text x="486" y="241" font-size="10" fill="#5F5E5A" text-anchor="start" font-family="sans-serif">省会 综合</text><rect x="20" y="248" width="640" height="22" fill="#ffffff"/><line x1="20" y1="270" x2="660" y2="270" stroke="#D3D1C7" stroke-width="0.5"/><text x="28" y="263" font-size="11" fill="#2C2C2A" font-weight="500" text-anchor="start" font-family="sans-serif">武汉文理学院</text><text x="216" y="263" font-size="10" fill="#5F5E5A" text-anchor="start" font-family="sans-serif">武汉</text><text x="278" y="263" font-size="10" fill="#854F0B" text-anchor="start" font-family="sans-serif">民办</text><text x="324" y="263" font-size="11" fill="#2C2C2A" font-weight="500" text-anchor="start" font-family="sans-serif">496</text><text x="368" y="263" font-size="10" fill="#5F5E5A" text-anchor="start" font-family="sans-serif">34972</text><rect x="431" y="251" width="40" height="16" fill="#EAF3DE" rx="3"/><text x="451.0" y="263" font-size="10" fill="#27500A" font-weight="500" text-anchor="middle" font-family="sans-serif">稳妥</text><text x="486" y="263" font-size="10" fill="#5F5E5A" text-anchor="start" font-family="sans-serif">省会 综合</text><rect x="20" y="270" width="640" height="26" fill="#EEEDFE"/><text x="28" y="287" font-size="12" fill="#3C3489" font-weight="500" text-anchor="start" font-family="sans-serif">师范类公办 · 考编友好</text><rect x="20" y="296" width="640" height="22" fill="#ffffff"/><line x1="20" y1="318" x2="660" y2="318" stroke="#D3D1C7" stroke-width="0.5"/><text x="28" y="311" font-size="11" fill="#2C2C2A" font-weight="500" text-anchor="start" font-family="sans-serif">唐山师范学院</text><text x="216" y="311" font-size="10" fill="#5F5E5A" text-anchor="start" font-family="sans-serif">唐山</text><text x="278" y="311" font-size="10" fill="#185FA5" text-anchor="start" font-family="sans-serif">公办</text><text x="324" y="311" font-size="11" fill="#2C2C2A" font-weight="500" text-anchor="start" font-family="sans-serif">503</text><text x="368" y="311" font-size="10" fill="#5F5E5A" text-anchor="start" font-family="sans-serif">31897</text><rect x="431" y="299" width="40" height="16" fill="#FAEEDA" rx="3"/><text x="451.0" y="311" font-size="10" fill="#633806" font-weight="500" text-anchor="middle" font-family="sans-serif">冲刺</text><text x="486" y="311" font-size="10" fill="#5F5E5A" text-anchor="start" font-family="sans-serif">河北 师范</text><rect x="20" y="318" width="640" height="22" fill="#FBFAF7"/><line x1="20" y1="340" x2="660" y2="340" stroke="#D3D1C7" stroke-width="0.5"/><text x="28" y="333" font-size="11" fill="#2C2C2A" font-weight="500" text-anchor="start" font-family="sans-serif">通化师范学院</text><text x="216" y="333" font-size="10" fill="#5F5E5A" text-anchor="start" font-family="sans-serif">通化</text><text x="278" y="333" font-size="10" fill="#185FA5" text-anchor="start" font-family="sans-serif">公办</text><text x="324" y="333" font-size="11" fill="#2C2C2A" font-weight="500" text-anchor="start" font-family="sans-serif">503</text><text x="368" y="333" font-size="10" fill="#5F5E5A" text-anchor="start" font-family="sans-serif">31707</text><rect x="431" y="321" width="40" height="16" fill="#FAEEDA" rx="3"/><text x="451.0" y="333" font-size="10" fill="#633806" font-weight="500" text-anchor="middle" font-family="sans-serif">冲刺</text><text x="486" y="333" font-size="10" fill="#5F5E5A" text-anchor="start" font-family="sans-serif">吉林 师范</text><rect x="20" y="340" width="640" height="22" fill="#ffffff"/><line x1="20" y1="362" x2="660" y2="362" stroke="#D3D1C7" stroke-width="0.5"/><text x="28" y="355" font-size="11" fill="#2C2C2A" font-weight="500" text-anchor="start" font-family="sans-serif">牡丹江师范学院</text><text x="216" y="355" font-size="10" fill="#5F5E5A" text-anchor="start" font-family="sans-serif">牡丹江</text><text x="278" y="355" font-size="10" fill="#185FA5" text-anchor="start" font-family="sans-serif">公办</text><text x="324" y="355" font-size="11" fill="#2C2C2A" font-weight="500" text-anchor="start" font-family="sans-serif">503</text><text x="368" y="355" font-size="10" fill="#5F5E5A" text-anchor="start" font-family="sans-serif">31787</text><rect x="431" y="343" width="40" height="16" fill="#FAEEDA" rx="3"/><text x="451.0" y="355" font-size="10" fill="#633806" font-weight="500" text-anchor="middle" font-family="sans-serif">冲刺</text><text x="486" y="355" font-size="10" fill="#5F5E5A" text-anchor="start" font-family="sans-serif">黑龙江 师范</text><rect x="20" y="362" width="640" height="22" fill="#FBFAF7"/><line x1="20" y1="384" x2="660" y2="384" stroke="#D3D1C7" stroke-width="0.5"/><text x="28" y="377" font-size="11" fill="#2C2C2A" font-weight="500" text-anchor="start" font-family="sans-serif">曲靖师范学院</text><text x="216" y="377" font-size="10" fill="#5F5E5A" text-anchor="start" font-family="sans-serif">曲靖</text><text x="278" y="377" font-size="10" fill="#185FA5" text-anchor="start" font-family="sans-serif">公办</text><text x="324" y="377" font-size="11" fill="#2C2C2A" font-weight="500" text-anchor="start" font-family="sans-serif">503</text><text x="368" y="377" font-size="10" fill="#5F5E5A" text-anchor="start" font-family="sans-serif">31805</text><rect x="431" y="365" width="40" height="16" fill="#FAEEDA" rx="3"/><text x="451.0" y="377" font-size="10" fill="#633806" font-weight="500" text-anchor="middle" font-family="sans-serif">冲刺</text><text x="486" y="377" font-size="10" fill="#5F5E5A" text-anchor="start" font-family="sans-serif">云南 师范</text><rect x="20" y="384" width="640" height="22" fill="#ffffff"/><line x1="20" y1="406" x2="660" y2="406" stroke="#D3D1C7" stroke-width="0.5"/><text x="28" y="399" font-size="11" fill="#2C2C2A" font-weight="500" text-anchor="start" font-family="sans-serif">鞍山师范学院</text><text x="216" y="399" font-size="10" fill="#5F5E5A" text-anchor="start" font-family="sans-serif">鞍山</text><text x="278" y="399" font-size="10" fill="#185FA5" text-anchor="start" font-family="sans-serif">公办</text><text x="324" y="399" font-size="11" fill="#2C2C2A" font-weight="500" text-anchor="start" font-family="sans-serif">503</text><text x="368" y="399" font-size="10" fill="#5F5E5A" text-anchor="start" font-family="sans-serif">31700</text><rect x="431" y="387" width="40" height="16" fill="#FAEEDA" rx="3"/><text x="451.0" y="399" font-size="10" fill="#633806" font-weight="500" text-anchor="middle" font-family="sans-serif">冲刺</text><text x="486" y="399" font-size="10" fill="#5F5E5A" text-anchor="start" font-family="sans-serif">辽宁 师范</text><rect x="20" y="406" width="640" height="22" fill="#FBFAF7"/><line x1="20" y1="428" x2="660" y2="428" stroke="#D3D1C7" stroke-width="0.5"/><text x="28" y="421" font-size="11" fill="#2C2C2A" font-weight="500" text-anchor="start" font-family="sans-serif">周口师范学院</text><text x="216" y="421" font-size="10" fill="#5F5E5A" text-anchor="start" font-family="sans-serif">周口</text><text x="278" y="421" font-size="10" fill="#185FA5" text-anchor="start" font-family="sans-serif">公办</text><text x="324" y="421" font-size="11" fill="#2C2C2A" font-weight="500" text-anchor="start" font-family="sans-serif">502</text><text x="368" y="421" font-size="10" fill="#5F5E5A" text-anchor="start" font-family="sans-serif">32304</text><rect x="431" y="409" width="40" height="16" fill="#FAEEDA" rx="3"/><text x="451.0" y="421" font-size="10" fill="#633806" font-weight="500" text-anchor="middle" font-family="sans-serif">冲刺</text><text x="486" y="421" font-size="10" fill="#5F5E5A" text-anchor="start" font-family="sans-serif">河南 师范</text><rect x="20" y="428" width="640" height="22" fill="#ffffff"/><line x1="20" y1="450" x2="660" y2="450" stroke="#D3D1C7" stroke-width="0.5"/><text x="28" y="443" font-size="11" fill="#2C2C2A" font-weight="500" text-anchor="start" font-family="sans-serif">大庆师范学院</text><text x="216" y="443" font-size="10" fill="#5F5E5A" text-anchor="start" font-family="sans-serif">大庆</text><text x="278" y="443" font-size="10" fill="#185FA5" text-anchor="start" font-family="sans-serif">公办</text><text x="324" y="443" font-size="11" fill="#2C2C2A" font-weight="500" text-anchor="start" font-family="sans-serif">500</text><text x="368" y="443" font-size="10" fill="#5F5E5A" text-anchor="start" font-family="sans-serif">33233</text><rect x="431" y="431" width="40" height="16" fill="#E6F1FB" rx="3"/><text x="451.0" y="443" font-size="10" fill="#0C447C" font-weight="500" text-anchor="middle" font-family="sans-serif">适中</text><text x="486" y="443" font-size="10" fill="#5F5E5A" text-anchor="start" font-family="sans-serif">黑龙江 师范</text><rect x="20" y="450" width="640" height="22" fill="#FBFAF7"/><line x1="20" y1="472" x2="660" y2="472" stroke="#D3D1C7" stroke-width="0.5"/><text x="28" y="465" font-size="11" fill="#2C2C2A" font-weight="500" text-anchor="start" font-family="sans-serif">朝阳师范学院</text><text x="216" y="465" font-size="10" fill="#5F5E5A" text-anchor="start" font-family="sans-serif">朝阳</text><text x="278" y="465" font-size="10" fill="#185FA5" text-anchor="start" font-family="sans-serif">公办</text><text x="324" y="465" font-size="11" fill="#2C2C2A" font-weight="500" text-anchor="start" font-family="sans-serif">498</text><text x="368" y="465" font-size="10" fill="#5F5E5A" text-anchor="start" font-family="sans-serif">34102</text><rect x="431" y="453" width="40" height="16" fill="#EAF3DE" rx="3"/><text x="451.0" y="465" font-size="10" fill="#27500A" font-weight="500" text-anchor="middle" font-family="sans-serif">稳妥</text><text x="486" y="465" font-size="10" fill="#5F5E5A" text-anchor="start" font-family="sans-serif">辽宁 师范</text><rect x="20" y="472" width="640" height="26" fill="#EEEDFE"/><text x="28" y="489" font-size="12" fill="#3C3489" font-weight="500" text-anchor="start" font-family="sans-serif">公办综合/理工 · 性价比</text><rect x="20" y="498" width="640" height="22" fill="#ffffff"/><line x1="20" y1="520" x2="660" y2="520" stroke="#D3D1C7" stroke-width="0.5"/><text x="28" y="513" font-size="11" fill="#2C2C2A" font-weight="500" text-anchor="start" font-family="sans-serif">泰山学院</text><text x="216" y="513" font-size="10" fill="#5F5E5A" text-anchor="start" font-family="sans-serif">泰安</text><text x="278" y="513" font-size="10" fill="#185FA5" text-anchor="start" font-family="sans-serif">公办</text><text x="324" y="513" font-size="11" fill="#2C2C2A" font-weight="500" text-anchor="start" font-family="sans-serif">503</text><text x="368" y="513" font-size="10" fill="#5F5E5A" text-anchor="start" font-family="sans-serif">31663</text><rect x="431" y="501" width="40" height="16" fill="#FAEEDA" rx="3"/><text x="451.0" y="513" font-size="10" fill="#633806" font-weight="500" text-anchor="middle" font-family="sans-serif">冲刺</text><text x="486" y="513" font-size="10" fill="#5F5E5A" text-anchor="start" font-family="sans-serif">山东 综合</text><rect x="20" y="520" width="640" height="22" fill="#FBFAF7"/><line x1="20" y1="542" x2="660" y2="542" stroke="#D3D1C7" stroke-width="0.5"/><text x="28" y="535" font-size="11" fill="#2C2C2A" font-weight="500" text-anchor="start" font-family="sans-serif">海南热带海洋学院</text><text x="216" y="535" font-size="10" fill="#5F5E5A" text-anchor="start" font-family="sans-serif">三亚</text><text x="278" y="535" font-size="10" fill="#185FA5" text-anchor="start" font-family="sans-serif">公办</text><text x="324" y="535" font-size="11" fill="#2C2C2A" font-weight="500" text-anchor="start" font-family="sans-serif">503</text><text x="368" y="535" font-size="10" fill="#5F5E5A" text-anchor="start" font-family="sans-serif">31773</text><rect x="431" y="523" width="40" height="16" fill="#FAEEDA" rx="3"/><text x="451.0" y="535" font-size="10" fill="#633806" font-weight="500" text-anchor="middle" font-family="sans-serif">冲刺</text><text x="486" y="535" font-size="10" fill="#5F5E5A" text-anchor="start" font-family="sans-serif">海南 海洋特色</text><rect x="20" y="542" width="640" height="22" fill="#ffffff"/><line x1="20" y1="564" x2="660" y2="564" stroke="#D3D1C7" stroke-width="0.5"/><text x="28" y="557" font-size="11" fill="#2C2C2A" font-weight="500" text-anchor="start" font-family="sans-serif">宝鸡文理学院</text><text x="216" y="557" font-size="10" fill="#5F5E5A" text-anchor="start" font-family="sans-serif">宝鸡</text><text x="278" y="557" font-size="10" fill="#185FA5" text-anchor="start" font-family="sans-serif">公办</text><text x="324" y="557" font-size="11" fill="#2C2C2A" font-weight="500" text-anchor="start" font-family="sans-serif">503</text><text x="368" y="557" font-size="10" fill="#5F5E5A" text-anchor="start" font-family="sans-serif">31764</text><rect x="431" y="545" width="40" height="16" fill="#FAEEDA" rx="3"/><text x="451.0" y="557" font-size="10" fill="#633806" font-weight="500" text-anchor="middle" font-family="sans-serif">冲刺</text><text x="486" y="557" font-size="10" fill="#5F5E5A" text-anchor="start" font-family="sans-serif">陕西 文理</text><rect x="20" y="564" width="640" height="22" fill="#FBFAF7"/><line x1="20" y1="586" x2="660" y2="586" stroke="#D3D1C7" stroke-width="0.5"/><text x="28" y="579" font-size="11" fill="#2C2C2A" font-weight="500" text-anchor="start" font-family="sans-serif">嘉应学院</text><text x="216" y="579" font-size="10" fill="#5F5E5A" text-anchor="start" font-family="sans-serif">梅州</text><text x="278" y="579" font-size="10" fill="#185FA5" text-anchor="start" font-family="sans-serif">公办</text><text x="324" y="579" font-size="11" fill="#2C2C2A" font-weight="500" text-anchor="start" font-family="sans-serif">503</text><text x="368" y="579" font-size="10" fill="#5F5E5A" text-anchor="start" font-family="sans-serif">31757</text><rect x="431" y="567" width="40" height="16" fill="#FAEEDA" rx="3"/><text x="451.0" y="579" font-size="10" fill="#633806" font-weight="500" text-anchor="middle" font-family="sans-serif">冲刺</text><text x="486" y="579" font-size="10" fill="#5F5E5A" text-anchor="start" font-family="sans-serif">广东 综合</text><rect x="20" y="586" width="640" height="22" fill="#ffffff"/><line x1="20" y1="608" x2="660" y2="608" stroke="#D3D1C7" stroke-width="0.5"/><text x="28" y="601" font-size="11" fill="#2C2C2A" font-weight="500" text-anchor="start" font-family="sans-serif">新乡学院</text><text x="216" y="601" font-size="10" fill="#5F5E5A" text-anchor="start" font-family="sans-serif">新乡</text><text x="278" y="601" font-size="10" fill="#185FA5" text-anchor="start" font-family="sans-serif">公办</text><text x="324" y="601" font-size="11" fill="#2C2C2A" font-weight="500" text-anchor="start" font-family="sans-serif">502</text><text x="368" y="601" font-size="10" fill="#5F5E5A" text-anchor="start" font-family="sans-serif">32196</text><rect x="431" y="589" width="40" height="16" fill="#FAEEDA" rx="3"/><text x="451.0" y="601" font-size="10" fill="#633806" font-weight="500" text-anchor="middle" font-family="sans-serif">冲刺</text><text x="486" y="601" font-size="10" fill="#5F5E5A" text-anchor="start" font-family="sans-serif">河南 综合</text><rect x="20" y="608" width="640" height="22" fill="#FBFAF7"/><line x1="20" y1="630" x2="660" y2="630" stroke="#D3D1C7" stroke-width="0.5"/><text x="28" y="623" font-size="11" fill="#2C2C2A" font-weight="500" text-anchor="start" font-family="sans-serif">河北科技工程职业技术大学</text><text x="216" y="623" font-size="10" fill="#5F5E5A" text-anchor="start" font-family="sans-serif">邢台</text><text x="278" y="623" font-size="10" fill="#185FA5" text-anchor="start" font-family="sans-serif">公办</text><text x="324" y="623" font-size="11" fill="#2C2C2A" font-weight="500" text-anchor="start" font-family="sans-serif">500</text><text x="368" y="623" font-size="10" fill="#5F5E5A" text-anchor="start" font-family="sans-serif">33044</text><rect x="431" y="611" width="40" height="16" fill="#E6F1FB" rx="3"/><text x="451.0" y="623" font-size="10" fill="#0C447C" font-weight="500" text-anchor="middle" font-family="sans-serif">适中</text><text x="486" y="623" font-size="10" fill="#5F5E5A" text-anchor="start" font-family="sans-serif">河北 职本</text><rect x="20" y="630" width="640" height="22" fill="#ffffff"/><line x1="20" y1="652" x2="660" y2="652" stroke="#D3D1C7" stroke-width="0.5"/><text x="28" y="645" font-size="11" fill="#2C2C2A" font-weight="500" text-anchor="start" font-family="sans-serif">南阳理工学院</text><text x="216" y="645" font-size="10" fill="#5F5E5A" text-anchor="start" font-family="sans-serif">南阳</text><text x="278" y="645" font-size="10" fill="#185FA5" text-anchor="start" font-family="sans-serif">公办</text><text x="324" y="645" font-size="11" fill="#2C2C2A" font-weight="500" text-anchor="start" font-family="sans-serif">498</text><text x="368" y="645" font-size="10" fill="#5F5E5A" text-anchor="start" font-family="sans-serif">34030</text><rect x="431" y="633" width="40" height="16" fill="#EAF3DE" rx="3"/><text x="451.0" y="645" font-size="10" fill="#27500A" font-weight="500" text-anchor="middle" font-family="sans-serif">稳妥</text><text x="486" y="645" font-size="10" fill="#5F5E5A" text-anchor="start" font-family="sans-serif">河南 理工</text><rect x="20" y="652" width="640" height="26" fill="#EEEDFE"/><text x="28" y="669" font-size="12" fill="#3C3489" font-weight="500" text-anchor="start" font-family="sans-serif">中外合作 · 公办文凭分数友好</text><rect x="20" y="678" width="640" height="22" fill="#ffffff"/><line x1="20" y1="700" x2="660" y2="700" stroke="#D3D1C7" stroke-width="0.5"/><text x="28" y="693" font-size="11" fill="#2C2C2A" font-weight="500" text-anchor="start" font-family="sans-serif">河北金融学院(中外合作)</text><text x="216" y="693" font-size="10" fill="#5F5E5A" text-anchor="start" font-family="sans-serif">保定</text><text x="278" y="693" font-size="10" fill="#185FA5" text-anchor="start" font-family="sans-serif">公办</text><text x="324" y="693" font-size="11" fill="#2C2C2A" font-weight="500" text-anchor="start" font-family="sans-serif">499</text><text x="368" y="693" font-size="10" fill="#5F5E5A" text-anchor="start" font-family="sans-serif">33801</text><rect x="431" y="681" width="40" height="16" fill="#EAF3DE" rx="3"/><text x="451.0" y="693" font-size="10" fill="#27500A" font-weight="500" text-anchor="middle" font-family="sans-serif">稳妥</text><text x="486" y="693" font-size="10" fill="#5F5E5A" text-anchor="start" font-family="sans-serif">金融特色 学费高</text><rect x="20" y="700" width="640" height="22" fill="#FBFAF7"/><line x1="20" y1="722" x2="660" y2="722" stroke="#D3D1C7" stroke-width="0.5"/><text x="28" y="715" font-size="11" fill="#2C2C2A" font-weight="500" text-anchor="start" font-family="sans-serif">山东工商学院(中外合作)</text><text x="216" y="715" font-size="10" fill="#5F5E5A" text-anchor="start" font-family="sans-serif">烟台</text><text x="278" y="715" font-size="10" fill="#185FA5" text-anchor="start" font-family="sans-serif">公办</text><text x="324" y="715" font-size="11" fill="#2C2C2A" font-weight="500" text-anchor="start" font-family="sans-serif">499</text><text x="368" y="715" font-size="10" fill="#5F5E5A" text-anchor="start" font-family="sans-serif">33622</text><rect x="431" y="703" width="40" height="16" fill="#EAF3DE" rx="3"/><text x="451.0" y="715" font-size="10" fill="#27500A" font-weight="500" text-anchor="middle" font-family="sans-serif">稳妥</text><text x="486" y="715" font-size="10" fill="#5F5E5A" text-anchor="start" font-family="sans-serif">财经类 学费高</text><rect x="20" y="722" width="640" height="22" fill="#ffffff"/><line x1="20" y1="744" x2="660" y2="744" stroke="#D3D1C7" stroke-width="0.5"/><text x="28" y="737" font-size="11" fill="#2C2C2A" font-weight="500" text-anchor="start" font-family="sans-serif">南阳师范学院(中外合作)</text><text x="216" y="737" font-size="10" fill="#5F5E5A" text-anchor="start" font-family="sans-serif">南阳</text><text x="278" y="737" font-size="10" fill="#185FA5" text-anchor="start" font-family="sans-serif">公办</text><text x="324" y="737" font-size="11" fill="#2C2C2A" font-weight="500" text-anchor="start" font-family="sans-serif">498</text><text x="368" y="737" font-size="10" fill="#5F5E5A" text-anchor="start" font-family="sans-serif">34359</text><rect x="431" y="725" width="40" height="16" fill="#EAF3DE" rx="3"/><text x="451.0" y="737" font-size="10" fill="#27500A" font-weight="500" text-anchor="middle" font-family="sans-serif">稳妥</text><text x="486" y="737" font-size="10" fill="#5F5E5A" text-anchor="start" font-family="sans-serif">师范 学费高</text><rect x="20" y="744" width="640" height="22" fill="#FBFAF7"/><line x1="20" y1="766" x2="660" y2="766" stroke="#D3D1C7" stroke-width="0.5"/><text x="28" y="759" font-size="11" fill="#2C2C2A" font-weight="500" text-anchor="start" font-family="sans-serif">莆田学院(中外合作)</text><text x="216" y="759" font-size="10" fill="#5F5E5A" text-anchor="start" font-family="sans-serif">莆田</text><text x="278" y="759" font-size="10" fill="#185FA5" text-anchor="start" font-family="sans-serif">公办</text><text x="324" y="759" font-size="11" fill="#2C2C2A" font-weight="500" text-anchor="start" font-family="sans-serif">496</text><text x="368" y="759" font-size="10" fill="#5F5E5A" text-anchor="start" font-family="sans-serif">35091</text><rect x="431" y="747" width="40" height="16" fill="#EAF3DE" rx="3"/><text x="451.0" y="759" font-size="10" fill="#27500A" font-weight="500" text-anchor="middle" font-family="sans-serif">稳妥</text><text x="486" y="759" font-size="10" fill="#5F5E5A" text-anchor="start" font-family="sans-serif">福建 学费高</text><text x="20" y="780" font-size="10" fill="#5F5E5A" text-anchor="start" font-family="sans-serif">说明：本表为省外非省会城市及特色院校补充推荐，与上一张省会城市表配套使用。</text><text x="20" y="795" font-size="10" fill="#5F5E5A" text-anchor="start" font-family="sans-serif">「冲刺」档录取位次高于考生位次(约3.4万)，可冲一冲；「适中」档基本匹配；「稳妥」档保底。</text><text x="20" y="810" font-size="10" fill="#5F5E5A" text-anchor="start" font-family="sans-serif">中外合作专业学费通常2-4万/年；沿海民办院校学费约1.5-2.5万/年，请结合家庭情况考虑。</text><line x1="208" y1="64" x2="208" y2="766" stroke="#D3D1C7" stroke-width="0.5"/><line x1="270" y1="64" x2="270" y2="766" stroke="#D3D1C7" stroke-width="0.5"/><line x1="316" y1="64" x2="316" y2="766" stroke="#D3D1C7" stroke-width="0.5"/><line x1="360" y1="64" x2="360" y2="766" stroke="#D3D1C7" stroke-width="0.5"/><line x1="424" y1="64" x2="424" y2="766" stroke="#D3D1C7" stroke-width="0.5"/><line x1="478" y1="64" x2="478" y2="766" stroke="#D3D1C7" stroke-width="0.5"/></svg>